# xmcd
#
# Track frame offsets: 
#        150
#        13402
#        29362
#        39436
#        49103
#        78368
#        90877
#        102059
#        112301
#        120763
#        141398
#
# Disc length: 2053 seconds
#
# Revision: 0
# Processed by: cddbd v1.5.2PL0 Copyright (c) Steve Scherf et al.
# Submitted via: ExactAudioCopy v0.99pb5
#
DISCID=8508030b
DTITLE=Dr K`s Blues Band - Dr K`s Blues Band
DYEAR=1968
DGENRE=Blues
TTITLE0=01.I can`t lose
TTITLE1=02.Walking
TTITLE2=03.Key to the highway
TTITLE3=04.Crippled Clarence
TTITLE4=05.Pet cream man
TTITLE5=06.Messin` with kid
TTITLE6=07.Don`t quit the man you for me
TTITLE7=08.Rolty`s Banio shuffle
TTITLE8=09.Strobe lemming`s laments
TTITLE9=10.Long distane call
TTITLE10=11.I feel so bad
EXTD=
EXTT0=
EXTT1=
EXTT2=
EXTT3=
EXTT4=
EXTT5=
EXTT6=
EXTT7=
EXTT8=
EXTT9=
EXTT10=
PLAYORDER=
